<?xml version="1.0" encoding="utf-8"?>
<svg viewBox="0 0 512 512" xmlns="http://www.w3.org/2000/svg">
  <defs>
    <linearGradient gradientUnits="userSpaceOnUse" x1="256" y1="0" x2="256" y2="512" id="gradient-0">
      <stop offset="0" style="stop-color: rgb(0% 38.431% 96.078%)"/>
      <stop offset="1" style="stop-color: rgb(0% 22.774% 64.332%)"/>
    </linearGradient>
  </defs>
  <path d="M256 512c141.4 0 256-114.6 256-256S397.4 0 256 0S0 114.6 0 256S114.6 512 256 512zM369 209L241 337c-9.4 9.4-24.6 9.4-33.9 0l-64-64c-9.4-9.4-9.4-24.6 0-33.9s24.6-9.4 33.9 0l47 47L335 175c9.4-9.4 24.6-9.4 33.9 0s9.4 24.6 0 33.9z" style="fill: url('#gradient-0');"/>
</svg>