<?xml version="1.0" encoding="utf-8"?>
<svg version="1.1" id="Layer_1" x="0px" y="0px" width="100%" viewBox="0 0 512 512" enable-background="new 0 0 512 512" xmlns="http://www.w3.org/2000/svg">
  <defs>
    <linearGradient gradientUnits="userSpaceOnUse" x1="92.385" y1="414.908" x2="92.385" y2="470.155" id="gradient-0">
      <stop offset="0" style="stop-color: rgb(29.412% 56.863% 96.471%)"/>
      <stop offset="1" style="stop-color: rgb(0, 58, 164);"/>
    </linearGradient>
    <linearGradient gradientUnits="userSpaceOnUse" x1="174.604" y1="414.912" x2="174.604" y2="470.132" id="gradient-1">
      <stop offset="0" style="stop-color: rgb(29.412% 56.863% 96.471%)"/>
      <stop offset="1" style="stop-color: rgb(0, 58, 164);"/>
    </linearGradient>
    <linearGradient gradientUnits="userSpaceOnUse" x1="256.994" y1="414.937" x2="256.994" y2="470.05" id="gradient-2">
      <stop offset="0" style="stop-color: rgb(29.412% 56.863% 96.471%)"/>
      <stop offset="1" style="stop-color: rgb(0, 58, 164);"/>
    </linearGradient>
    <linearGradient gradientUnits="userSpaceOnUse" x1="339.381" y1="414.923" x2="339.381" y2="470.143" id="gradient-3">
      <stop offset="0" style="stop-color: rgb(29.412% 56.863% 96.471%)"/>
      <stop offset="1" style="stop-color: rgb(0, 58, 164);"/>
    </linearGradient>
    <linearGradient gradientUnits="userSpaceOnUse" x1="421.62" y1="414.909" x2="421.62" y2="470.136" id="gradient-4">
      <stop offset="0" style="stop-color: rgb(29.412% 56.863% 96.471%)"/>
      <stop offset="1" style="stop-color: rgb(0, 58, 164);"/>
    </linearGradient>
    <linearGradient gradientUnits="userSpaceOnUse" x1="256.915" y1="120.975" x2="256.915" y2="354.092" id="gradient-5">
      <stop offset="0" style="stop-color: rgb(75, 145, 246);"/>
      <stop offset="1" style="stop-color: rgb(0, 58, 164);"/>
    </linearGradient>
    <linearGradient gradientUnits="userSpaceOnUse" x1="373.11" y1="281.859" x2="373.11" y2="321.074" id="gradient-6">
      <stop offset="0" style="stop-color: rgb(23.137% 24.706% 36.078%)"/>
      <stop offset="1" style="stop-color: rgb(13.521% 15.4% 25.987%)"/>
    </linearGradient>
    <linearGradient gradientUnits="userSpaceOnUse" x1="257.019" y1="179.833" x2="257.019" y2="295.159" id="gradient-7">
      <stop offset="0" style="stop-color: rgb(23.137% 24.706% 36.078%)"/>
      <stop offset="1" style="stop-color: rgb(13.521% 15.4% 25.987%)"/>
    </linearGradient>
  </defs>
  <path opacity="1.000000" stroke="none" d=" M272.000000,513.000000 C182.688339,513.000000 93.876656,512.978333 5.065120,513.085876 C1.784663,513.089844 0.895107,512.624390 0.897596,509.066895 C1.015100,341.107941 1.016995,173.148926 0.891023,5.190006 C0.888197,1.421978 1.863109,0.914383 5.308050,0.916346 C173.100388,1.011968 340.892792,1.011683 508.685120,0.917908 C512.111633,0.915993 513.113281,1.396287 513.110352,5.183177 C512.982727,172.975464 512.983398,340.767883 513.103149,508.560211 C513.105957,512.445557 512.083984,513.094299 508.441803,513.088867 C429.794647,512.972046 351.147308,513.000000 272.000000,513.000000 z" style="fill: rgb(255, 255, 255); fill-opacity: 0;"/>
  <path opacity="1.000000" stroke="none" d=" M293.000000,386.999420 C353.974213,386.999451 414.448456,386.998566 474.922668,387.000244 C487.664032,387.000610 498.029755,397.305786 498.009644,410.225800 C497.975983,431.883209 498.075775,453.541046 497.971802,475.197968 C497.911285,487.804413 487.826782,497.981415 474.999237,497.983734 C329.727814,498.010254 184.456375,497.963348 39.185043,498.069427 C27.245802,498.078156 15.785280,486.947906 15.929129,474.776459 C16.181112,453.455170 16.303604,432.122833 15.884539,410.806824 C15.635685,398.148743 27.435934,386.861664 39.607933,386.891266 C123.904877,387.096375 208.202560,386.999420 293.000000,386.999420 z" style="fill: rgb(235, 243, 255);"/>
  <path opacity="1.000000" stroke="none" d=" M342.712067,158.437912 C352.807373,168.728577 359.616486,180.712845 364.963928,193.557617 C370.145294,206.003418 372.970398,218.938293 373.210083,232.534943 C373.278137,236.394638 374.005493,240.210876 373.026398,244.466736 C371.454376,247.293152 368.816864,247.292770 366.404724,247.662918 C328.492706,253.480713 308.275604,290.923096 324.297577,325.668854 C325.259735,327.755402 326.570831,329.806274 325.306610,332.564758 C320.260071,335.577606 315.551331,338.428436 310.705139,341.022430 C298.256897,347.685486 284.973236,351.368317 270.926147,353.119324 C246.784653,356.128632 223.881210,352.192993 202.660187,340.778931 C172.259781,324.427521 152.585831,299.327545 143.837631,265.630707 C141.463028,256.484070 140.299133,247.179153 140.295502,238.044220 C140.288971,221.555481 143.405930,205.386642 150.349152,190.133133 C157.234222,175.007324 166.476944,161.579620 178.959259,150.649979 C195.396225,136.257584 214.162094,126.468597 236.014587,122.882927 C243.530991,121.649605 250.984619,120.895943 258.576172,120.981743 C276.791962,121.187653 294.041718,125.226715 310.528809,133.849548 C312.238586,133.848328 313.446747,134.373825 314.613983,135.016281 C324.077026,140.224792 332.677124,146.567459 340.160858,154.391815 C341.218201,155.497299 341.843689,156.822021 342.712067,158.437912 z" style="fill: url('#gradient-5');"/>
  <path opacity="1.000000" stroke="none" d=" M325.348083,332.991455 C325.296692,330.855988 324.100525,329.374695 323.280396,327.758270 C306.132812,293.961029 324.824036,254.542435 361.858826,246.514221 C365.258484,245.777252 368.771545,245.563538 372.638977,244.996429 C388.868408,244.444336 402.402954,250.609161 413.359314,261.227234 C421.945557,269.548340 427.230865,280.176941 429.172821,292.544281 C431.578247,307.863251 428.074249,321.641876 419.896271,334.154999 C412.073486,346.124573 400.336151,353.701874 386.537842,356.783508 C370.077484,360.459656 354.212067,357.991455 340.074280,348.026489 C334.345947,343.988892 329.683289,338.861328 325.348083,332.991455 z" style="fill: rgb(238, 240, 242);"/>
  <path opacity="1.000000" stroke="none" d=" M342.946594,158.284515 C333.212158,149.544830 322.965057,141.073715 311.035004,134.277771 C310.902405,122.653336 311.592010,111.283035 310.867584,100.003563 C309.321045,75.924179 294.955780,55.930538 270.444733,49.388371 C250.690216,44.115765 229.266235,50.698753 215.460342,68.975121 C208.805115,77.785332 204.744934,87.180313 203.809601,98.234062 C203.478638,102.145294 202.996552,106.054512 203.032471,109.983452 C203.065460,113.592995 201.382507,115.059502 197.875290,115.021996 C190.876709,114.947144 183.876617,114.972321 176.877441,115.009857 C172.869339,115.031349 171.056549,113.109161 170.975784,109.107719 C170.529984,87.020401 176.040741,66.561440 189.581284,49.066441 C202.974747,31.761435 220.462265,20.284161 242.610153,16.984978 C268.578156,13.116747 291.872101,18.816544 312.346497,35.746075 C328.677856,49.249886 337.976044,66.674095 341.765198,87.123528 C342.519836,91.196213 343.100433,95.522263 343.065247,99.845398 C342.907928,119.175797 342.985046,138.508087 342.946594,158.284515 z" style="fill: rgb(238, 240, 242);"/>
  <path opacity="1.000000" stroke="none" d=" M258.623352,469.869751 C254.314133,470.723480 253.178528,468.435455 253.126328,465.144012 C253.060394,460.985809 253.063171,456.825684 253.104767,452.667023 C253.128845,450.261047 252.255646,449.651154 250.125076,450.887878 C246.530411,452.974457 242.903610,455.005554 239.296997,457.071594 C236.885971,458.452759 234.443192,459.001923 232.851608,456.124512 C231.311676,453.340485 233.365326,451.882324 235.491806,450.637177 C239.914108,448.047852 244.330551,445.448486 249.336990,442.508148 C244.452866,439.704315 240.131577,437.278168 235.868622,434.753540 C233.695465,433.466522 231.178818,431.985382 232.836975,428.938782 C234.559967,425.773071 237.185822,426.706085 239.698654,428.164642 C243.149521,430.167786 246.643280,432.097046 250.092300,434.103241 C252.152039,435.301331 253.129349,434.880829 253.103851,432.388245 C253.061295,428.229645 253.091019,424.070129 253.114853,419.911102 C253.129425,417.367401 253.796661,415.056427 256.790375,414.942139 C260.108093,414.815430 260.864594,417.232056 260.884766,419.990967 C260.912750,423.817169 261.033752,427.649933 260.860291,431.468353 C260.688416,435.253754 262.110138,435.330933 264.860443,433.639343 C268.116669,431.636597 271.473022,429.796356 274.791016,427.894501 C277.229614,426.496643 279.684479,426.100769 281.202209,428.987579 C282.662720,431.765533 280.556885,433.319244 278.502930,434.547943 C274.230743,437.103607 269.889984,439.544739 264.804138,442.479065 C268.359589,444.587738 271.374542,446.384277 274.398376,448.165741 C275.974030,449.094025 277.617828,449.916901 279.136414,450.929047 C281.059143,452.210541 282.571655,453.836823 281.074768,456.301605 C279.671997,458.611389 277.525757,458.597504 275.413666,457.448242 C271.763214,455.461914 268.152130,453.394928 264.604584,451.230530 C261.943970,449.607269 260.742676,449.946045 260.868805,453.323212 C261.005341,456.978088 260.881165,460.642242 260.900726,464.302155 C260.911591,466.337341 260.852997,468.326630 258.623352,469.869751 z" style="fill: url('#gradient-2');"/>
  <path opacity="1.000000" stroke="none" d=" M198.947845,453.469360 C198.117447,458.281219 196.547424,459.190491 192.664917,457.208069 C189.409744,455.545990 186.181335,453.775208 183.154968,451.735260 C179.167786,449.047577 178.441818,450.711334 178.640015,454.575592 C178.810272,457.895081 178.734695,461.232727 178.639328,464.558624 C178.559464,467.343231 178.149887,470.246979 174.470062,470.128174 C171.007294,470.016418 170.957428,467.234863 170.966446,464.628632 C170.979706,460.800842 170.884323,456.970673 170.992401,453.145935 C171.072006,450.329346 170.310226,449.396179 167.607086,451.005127 C164.035019,453.131256 160.392670,455.140747 156.757599,457.159088 C154.549789,458.384979 152.173828,458.988739 150.626022,456.405426 C149.035599,453.750977 150.850327,452.024231 152.990738,450.750000 C157.406738,448.121094 161.870575,445.572540 167.092758,442.538971 C162.250870,439.738434 158.003967,437.324005 153.801361,434.834808 C151.457794,433.446716 148.768433,431.796600 150.630127,428.633484 C152.465637,425.514893 155.224426,426.962616 157.619141,428.308441 C161.790619,430.652832 165.937836,433.040375 170.971649,435.909363 C170.971649,430.054840 170.993423,424.998169 170.962479,419.941803 C170.947021,417.415405 171.311478,415.051880 174.439041,414.918060 C177.813187,414.773712 178.526154,417.294708 178.617035,419.959747 C178.741760,423.617096 178.829605,427.289978 178.634979,430.940308 C178.401016,435.328583 180.028870,435.333344 183.144028,433.313782 C186.071518,431.415863 189.144836,429.738403 192.189346,428.026825 C194.502625,426.726318 197.111450,425.783234 198.675293,428.741150 C200.159698,431.548889 198.266418,433.319794 195.846283,434.689728 C191.554550,437.119080 187.338928,439.682861 182.866348,442.323273 C187.953934,446.901581 194.556931,448.289398 198.947845,453.469360 z" style="fill: url('#gradient-1');"/>
  <path opacity="1.000000" stroke="none" d=" M436.440216,438.392273 C434.157227,439.777618 432.183594,440.971436 429.898590,442.353638 C433.992401,445.851410 438.614807,447.753662 442.808777,450.315002 C445.167114,451.755341 447.152588,453.420074 445.674957,456.251373 C444.120544,459.229919 441.517761,458.288666 439.202881,456.980560 C435.727966,455.016876 432.260406,453.036591 428.846802,450.969208 C426.339996,449.451050 425.216431,449.980835 425.259094,452.979919 C425.315826,456.972778 425.258301,460.967102 425.265411,464.960815 C425.270142,467.642212 424.960144,470.242249 421.454254,470.133087 C418.330292,470.035828 417.928314,467.661072 417.944885,465.133850 C417.968842,461.473114 417.756866,457.799500 417.995728,454.154327 C418.303497,449.457062 416.616852,449.415741 413.313263,451.687592 C411.264465,453.096558 409.075775,454.347992 406.826263,455.407715 C403.908844,456.782104 400.391724,460.682373 397.789856,456.347412 C395.071289,451.818024 400.318939,450.798157 402.978638,449.048981 C406.296509,446.866943 409.820923,444.999023 414.039764,442.538422 C409.239380,439.756378 405.025726,437.313965 400.811615,434.872223 C398.423859,433.488708 395.800903,431.949371 397.672150,428.716309 C399.534515,425.498596 402.226410,426.986816 404.610809,428.323273 C407.947174,430.193329 411.285065,432.065765 414.552155,434.052521 C417.261719,435.700256 418.026703,434.724792 417.968170,431.922150 C417.881348,427.763947 417.969971,423.602325 417.950165,419.442352 C417.938568,417.009521 418.635468,415.038147 421.420502,414.915314 C424.573029,414.776276 425.254242,416.941223 425.256561,419.549500 C425.260284,423.709595 425.314606,427.870270 425.258698,432.029541 C425.217987,435.059509 426.386902,435.526550 428.861755,434.029144 C432.134094,432.049286 435.453827,430.146118 438.781281,428.259521 C441.193970,426.891632 443.925049,425.559601 445.678040,428.806671 C447.188141,431.603790 445.249939,433.435455 442.820190,434.745361 C440.771210,435.849976 438.771271,437.045502 436.440216,438.392273 z" style="fill: url('#gradient-4');"/>
  <path opacity="1.000000" stroke="none" d=" M96.053070,426.909454 C96.052933,435.920502 96.056061,435.926056 103.327339,431.832550 C105.648331,430.525909 107.933228,429.154816 110.261528,427.861603 C112.484505,426.626953 114.809692,426.054871 116.348740,428.701355 C117.892273,431.355560 116.242020,433.087524 114.048752,434.383026 C109.616096,437.001312 105.159744,439.579468 100.090096,442.537781 C104.820152,445.287567 109.103104,447.706055 113.309486,450.251099 C115.620575,451.649445 118.290718,453.291809 116.282349,456.501801 C114.517448,459.322693 111.943382,458.134460 109.676376,456.853333 C106.198196,454.887726 102.722946,452.914185 99.297607,450.858765 C96.940231,449.444244 96.009026,450.060089 96.044022,452.752106 C96.100327,457.082092 96.035789,461.413574 96.046669,465.744354 C96.052910,468.229279 95.179054,470.097107 92.432739,470.153748 C89.627586,470.211578 88.772804,468.292664 88.758865,465.835449 C88.735252,461.671326 88.661613,457.505371 88.753242,453.343384 C88.821678,450.234802 87.867607,449.313660 84.999847,451.056488 C81.586220,453.131134 78.105705,455.097229 74.629967,457.067657 C72.463882,458.295593 70.025040,459.103394 68.472527,456.515778 C66.832581,453.782532 68.429428,451.908264 70.949104,450.506134 C75.285973,448.092804 79.540253,445.531128 84.639664,442.559357 C79.705917,439.680664 75.497200,437.162964 71.226120,434.755951 C68.625732,433.290436 66.623108,431.382965 68.541893,428.419312 C70.339920,425.642212 72.931961,426.957306 75.173141,428.230438 C78.357765,430.039551 81.544106,431.850586 84.661949,433.770844 C87.430458,435.475922 88.888565,435.300842 88.760643,431.556061 C88.624252,427.563232 88.740372,423.561768 88.742790,419.564087 C88.744362,416.958008 89.411018,414.780121 92.570587,414.914185 C95.358658,415.032440 96.069969,417.006317 96.048637,419.441315 C96.028214,421.773102 96.049873,424.105194 96.053070,426.909454 z" style="fill: url('#gradient-0');"/>
  <path opacity="1.000000" stroke="none" d=" M357.169312,457.132751 C353.504242,455.057068 350.110657,453.274567 346.889923,451.220978 C343.644470,449.151642 342.942200,450.405243 343.043396,453.628906 C343.168640,457.617584 343.054352,461.613464 343.066406,465.606171 C343.073730,468.032013 342.366577,470.024750 339.589355,470.137421 C336.446594,470.264923 335.776428,468.082550 335.776123,465.478241 C335.775604,461.319153 335.712524,457.159241 335.776184,453.001221 C335.822205,449.995850 334.700867,449.473022 332.194794,450.972900 C328.628510,453.107208 325.019836,455.173218 321.389679,457.197388 C319.180786,458.429138 316.745605,458.990051 315.338593,456.300049 C314.020020,453.779144 315.403503,451.947754 317.758453,450.629028 C322.205414,448.138916 326.580170,445.519897 331.679810,442.549744 C326.639557,439.602051 322.393616,437.039551 318.067810,434.619720 C315.601074,433.239838 313.836670,431.400604 315.383301,428.645477 C317.019073,425.731506 319.625336,426.788818 321.909180,428.076294 C325.240509,429.954285 328.567902,431.845581 331.820709,433.854614 C334.908112,435.761505 335.899536,434.777222 335.792847,431.418213 C335.666138,427.429657 335.768097,423.433716 335.779297,419.440979 C335.785919,417.070587 336.334381,414.988434 339.216339,414.925110 C342.307434,414.857208 343.084900,416.912140 343.071106,419.568085 C343.049530,423.727081 343.140472,427.887695 343.054749,432.044952 C342.991730,435.100891 344.088531,435.550781 346.583405,434.016479 C349.698090,432.100891 352.879700,430.291351 356.066284,428.496216 C358.565735,427.088196 361.529053,425.274872 363.404236,428.766418 C365.253693,432.210022 362.088196,433.710297 359.638336,435.159668 C355.642670,437.523621 351.638275,439.872833 347.094482,442.547974 C351.949310,445.386566 356.372681,447.938354 360.758850,450.552521 C362.860168,451.804840 364.855042,453.436523 363.528656,456.144562 C362.216919,458.822632 359.832336,458.486206 357.169312,457.132751 z" style="fill: url('#gradient-3');"/>
  <path opacity="1.000000" stroke="none" d=" M280.124390,247.818481 C282.960205,259.353607 285.806091,270.462891 288.432648,281.623779 C290.216125,289.202118 285.761169,294.989624 278.038391,295.062195 C264.059357,295.193542 250.077454,295.188171 236.098251,295.066193 C228.070938,294.996185 223.759476,289.297760 225.660019,281.313843 C229.007950,267.249725 232.475693,253.213287 236.026062,239.198898 C236.731598,236.413956 236.541092,234.506165 234.364700,232.169098 C222.769241,219.717636 223.171204,200.363861 234.960037,188.907547 C247.114807,177.095657 266.164368,176.774734 278.314972,188.177231 C290.487915,199.600677 291.575134,218.627991 280.264465,231.369949 C277.464447,234.524277 277.201813,237.140945 278.326080,240.650757 C279.034271,242.861633 279.478424,245.157089 280.124390,247.818481 z" style="fill: url('#gradient-7');"/>
  <path opacity="1.000000" stroke="none" d=" M352.315308,301.813446 C355.296600,304.427582 358.171692,306.736877 360.535706,309.485687 C362.790619,312.107697 364.144592,311.537109 366.286926,309.329651 C374.385895,300.984589 382.687164,292.836060 390.900757,284.602020 C392.844788,282.653107 394.947266,280.465057 397.644226,283.014465 C400.640350,285.846680 398.213470,288.070435 396.175262,290.112579 C386.668243,299.637787 377.085693,309.088745 367.669403,318.702667 C364.489960,321.948822 361.900970,321.827667 358.904358,318.555481 C355.765564,315.128113 352.364502,311.940887 349.078491,308.648315 C347.736847,307.303986 346.587982,305.857971 347.494873,303.818573 C348.361786,301.869049 349.929199,301.220703 352.315308,301.813446 z" style="fill: url('#gradient-6');"/>
</svg>