<?xml version="1.0" encoding="utf-8"?>
<svg viewBox="0 0 512 512" xmlns="http://www.w3.org/2000/svg">
  <defs>
    <linearGradient gradientUnits="userSpaceOnUse" x1="256" y1="0" x2="256" y2="509.2" id="gradient-0" spreadMethod="reflect">
      <stop offset="0" style="stop-color: rgb(0% 38.431% 96.078%)"/>
      <stop offset="1" style="stop-color: rgb(0% 22.774% 64.332%)"/>
    </linearGradient>
  </defs>
  <path d="M256 0c4.6 0 9.2 1 13.4 2.9L457.7 82.8c22 9.3 38.4 31 38.3 57.2c-.5 99.2-41.3 280.7-213.7 363.2c-16.7 8-36.1 8-52.8 0C57.3 420.7 16.5 239.2 16 140c-.1-26.2 16.3-47.9 38.3-57.2L242.7 2.9C246.8 1 251.4 0 256 0zm0 66.8V444.8C394 378 431.1 230.1 432 141.4L256 66.8l0 0z" style="fill: url('#gradient-0'); fill-rule: nonzero;"/>
</svg>